<mxfile host="app.diagrams.net" modified="2024-03-25T03:11:15.665Z" agent="Mozilla/5.0 (Windows NT 10.0; Win64; x64) AppleWebKit/537.36 (KHTML, like Gecko) Chrome/122.0.0.0 Safari/537.36 Edg/122.0.0.0" etag="8pKBvKTEpMX0TLbROc5U" version="21.3.7" type="github" pages="8">
  <diagram name="Home" id="f1b7ffb7-ca1e-a977-7cf5-a751b3c06c05">
    <mxGraphModel dx="5130" dy="3997" grid="1" gridSize="10" guides="1" tooltips="1" connect="1" arrows="1" fold="1" page="1" pageScale="1" pageWidth="826" pageHeight="1169" background="none" math="0" shadow="0">
      <root>
        <mxCell id="0" />
        <mxCell id="1" parent="0" />
        <mxCell id="XexKhYFUGnHcfU3dh805-70" value="" style="strokeWidth=1;shadow=0;dashed=0;align=center;html=1;shape=mxgraph.mockup.containers.browserWindow;rSize=0;strokeColor2=#008cff;strokeColor3=#c4c4c4;mainText=,;recursiveResize=0;movable=0;resizable=0;rotatable=0;deletable=0;editable=0;locked=1;connectable=0;container=0;autosize=0;strokeOpacity=100;fillOpacity=100;fillColor=none;sketch=1;curveFitting=1;jiggle=2;" vertex="1" parent="1">
          <mxGeometry y="-90" width="1000" height="1740" as="geometry" />
        </mxCell>
        <mxCell id="XexKhYFUGnHcfU3dh805-64" value="Home" style="rounded=1;whiteSpace=wrap;html=1;fontSize=42;fontFamily=Noto Sans;fontSource=https%3A%2F%2Ffonts.googleapis.com%2Fcss%3Ffamily%3DNoto%2BSans;align=left;gradientColor=none;fontStyle=1;fillColor=none;strokeColor=none;sketch=1;curveFitting=1;jiggle=2;" vertex="1" parent="1">
          <mxGeometry x="3" y="-170" width="700" height="60" as="geometry" />
        </mxCell>
        <mxCell id="XexKhYFUGnHcfU3dh805-97" value="&lt;p style=&quot;font-size: 36px;&quot;&gt;Logo&lt;/p&gt;" style="verticalLabelPosition=middle;shadow=0;dashed=0;align=center;html=1;verticalAlign=middle;strokeWidth=1;shape=mxgraph.mockup.graphics.simpleIcon;strokeColor=#999999;labelPosition=center;fontStyle=0;fontFamily=Noto Sans;fontSource=https%3A%2F%2Ffonts.googleapis.com%2Fcss%3Ffamily%3DNoto%2BSans;sketch=1;curveFitting=1;jiggle=2;" vertex="1" parent="1">
          <mxGeometry x="30" y="60" width="190" height="90" as="geometry" />
        </mxCell>
        <mxCell id="XexKhYFUGnHcfU3dh805-100" value="&lt;p style=&quot;font-size: 36px;&quot;&gt;Top menu&lt;/p&gt;" style="verticalLabelPosition=middle;shadow=0;dashed=0;align=center;html=1;verticalAlign=middle;strokeWidth=1;shape=mxgraph.mockup.graphics.simpleIcon;strokeColor=#999999;labelPosition=center;fontStyle=0;fontFamily=Noto Sans;fontSource=https%3A%2F%2Ffonts.googleapis.com%2Fcss%3Ffamily%3DNoto%2BSans;sketch=1;curveFitting=1;jiggle=2;" vertex="1" parent="1">
          <mxGeometry x="420" y="60" width="540" height="90" as="geometry" />
        </mxCell>
        <mxCell id="XexKhYFUGnHcfU3dh805-101" value="&lt;p style=&quot;font-size: 36px;&quot;&gt;Footer&lt;/p&gt;" style="verticalLabelPosition=middle;shadow=0;dashed=0;align=center;html=1;verticalAlign=middle;strokeWidth=1;shape=mxgraph.mockup.graphics.simpleIcon;strokeColor=#999999;labelPosition=center;fontStyle=0;fontFamily=Noto Sans;fontSource=https%3A%2F%2Ffonts.googleapis.com%2Fcss%3Ffamily%3DNoto%2BSans;sketch=1;curveFitting=1;jiggle=2;" vertex="1" parent="1">
          <mxGeometry x="30" y="1500" width="930" height="130" as="geometry" />
        </mxCell>
        <mxCell id="XexKhYFUGnHcfU3dh805-102" value="&lt;p style=&quot;font-size: 36px;&quot;&gt;Hero&lt;/p&gt;" style="verticalLabelPosition=middle;shadow=0;dashed=0;align=center;html=1;verticalAlign=middle;strokeWidth=1;shape=mxgraph.mockup.graphics.simpleIcon;strokeColor=#999999;labelPosition=center;fontStyle=0;fontFamily=Noto Sans;fontSource=https%3A%2F%2Ffonts.googleapis.com%2Fcss%3Ffamily%3DNoto%2BSans;sketch=1;curveFitting=1;jiggle=2;" vertex="1" parent="1">
          <mxGeometry y="200" width="1000" height="310" as="geometry" />
        </mxCell>
        <mxCell id="XexKhYFUGnHcfU3dh805-103" value="&lt;p style=&quot;font-size: 36px;&quot;&gt;About&lt;/p&gt;" style="verticalLabelPosition=middle;shadow=0;dashed=0;align=center;html=1;verticalAlign=middle;strokeWidth=1;shape=mxgraph.mockup.graphics.simpleIcon;strokeColor=#999999;labelPosition=center;fontStyle=0;fontFamily=Noto Sans;fontSource=https%3A%2F%2Ffonts.googleapis.com%2Fcss%3Ffamily%3DNoto%2BSans;sketch=1;curveFitting=1;jiggle=2;" vertex="1" parent="1">
          <mxGeometry x="35" y="560" width="930" height="310" as="geometry" />
        </mxCell>
        <mxCell id="XexKhYFUGnHcfU3dh805-104" value="&lt;p style=&quot;font-size: 36px;&quot;&gt;Offer&lt;/p&gt;" style="verticalLabelPosition=middle;shadow=0;dashed=0;align=center;html=1;verticalAlign=middle;strokeWidth=1;shape=mxgraph.mockup.graphics.simpleIcon;strokeColor=#999999;labelPosition=center;fontStyle=0;fontFamily=Noto Sans;fontSource=https%3A%2F%2Ffonts.googleapis.com%2Fcss%3Ffamily%3DNoto%2BSans;sketch=1;curveFitting=1;jiggle=2;" vertex="1" parent="1">
          <mxGeometry x="35" y="920" width="930" height="310" as="geometry" />
        </mxCell>
      </root>
    </mxGraphModel>
  </diagram>
  <diagram name="Blog" id="t9nNm-OGqDk1KQs1UZtv">
    <mxGraphModel dx="2052" dy="2300" grid="1" gridSize="10" guides="1" tooltips="1" connect="1" arrows="1" fold="1" page="1" pageScale="1" pageWidth="826" pageHeight="1169" background="none" math="0" shadow="0">
      <root>
        <mxCell id="jdfjYdp7Dpk2zrsOBO0Q-0" />
        <mxCell id="jdfjYdp7Dpk2zrsOBO0Q-1" parent="jdfjYdp7Dpk2zrsOBO0Q-0" />
        <mxCell id="jdfjYdp7Dpk2zrsOBO0Q-2" value="" style="strokeWidth=1;shadow=0;dashed=0;align=center;html=1;shape=mxgraph.mockup.containers.browserWindow;rSize=0;strokeColor2=#008cff;strokeColor3=#c4c4c4;mainText=,;recursiveResize=0;movable=0;resizable=0;rotatable=0;deletable=0;editable=0;locked=1;connectable=0;container=0;autosize=0;strokeOpacity=100;fillOpacity=100;fillColor=none;sketch=1;curveFitting=1;jiggle=2;" vertex="1" parent="jdfjYdp7Dpk2zrsOBO0Q-1">
          <mxGeometry y="-90" width="1000" height="1740" as="geometry" />
        </mxCell>
        <mxCell id="jdfjYdp7Dpk2zrsOBO0Q-3" value="Blog" style="rounded=1;whiteSpace=wrap;html=1;fontSize=42;fontFamily=Noto Sans;fontSource=https%3A%2F%2Ffonts.googleapis.com%2Fcss%3Ffamily%3DNoto%2BSans;align=left;gradientColor=none;fontStyle=1;fillColor=none;strokeColor=none;sketch=1;curveFitting=1;jiggle=2;" vertex="1" parent="jdfjYdp7Dpk2zrsOBO0Q-1">
          <mxGeometry x="3" y="-170" width="700" height="60" as="geometry" />
        </mxCell>
        <mxCell id="jdfjYdp7Dpk2zrsOBO0Q-4" value="&lt;p style=&quot;font-size: 36px;&quot;&gt;Logo&lt;/p&gt;" style="verticalLabelPosition=middle;shadow=0;dashed=0;align=center;html=1;verticalAlign=middle;strokeWidth=1;shape=mxgraph.mockup.graphics.simpleIcon;strokeColor=#999999;labelPosition=center;fontStyle=0;fontFamily=Noto Sans;fontSource=https%3A%2F%2Ffonts.googleapis.com%2Fcss%3Ffamily%3DNoto%2BSans;sketch=1;curveFitting=1;jiggle=2;" vertex="1" parent="jdfjYdp7Dpk2zrsOBO0Q-1">
          <mxGeometry x="30" y="60" width="190" height="90" as="geometry" />
        </mxCell>
        <mxCell id="jdfjYdp7Dpk2zrsOBO0Q-5" value="&lt;p style=&quot;font-size: 36px;&quot;&gt;Top menu&lt;/p&gt;" style="verticalLabelPosition=middle;shadow=0;dashed=0;align=center;html=1;verticalAlign=middle;strokeWidth=1;shape=mxgraph.mockup.graphics.simpleIcon;strokeColor=#999999;labelPosition=center;fontStyle=0;fontFamily=Noto Sans;fontSource=https%3A%2F%2Ffonts.googleapis.com%2Fcss%3Ffamily%3DNoto%2BSans;sketch=1;curveFitting=1;jiggle=2;" vertex="1" parent="jdfjYdp7Dpk2zrsOBO0Q-1">
          <mxGeometry x="420" y="60" width="540" height="90" as="geometry" />
        </mxCell>
        <mxCell id="jdfjYdp7Dpk2zrsOBO0Q-6" value="&lt;p style=&quot;font-size: 36px;&quot;&gt;Footer&lt;/p&gt;" style="verticalLabelPosition=middle;shadow=0;dashed=0;align=center;html=1;verticalAlign=middle;strokeWidth=1;shape=mxgraph.mockup.graphics.simpleIcon;strokeColor=#999999;labelPosition=center;fontStyle=0;fontFamily=Noto Sans;fontSource=https%3A%2F%2Ffonts.googleapis.com%2Fcss%3Ffamily%3DNoto%2BSans;sketch=1;curveFitting=1;jiggle=2;" vertex="1" parent="jdfjYdp7Dpk2zrsOBO0Q-1">
          <mxGeometry x="30" y="1500" width="930" height="130" as="geometry" />
        </mxCell>
        <mxCell id="jdfjYdp7Dpk2zrsOBO0Q-7" value="&lt;p style=&quot;font-size: 36px;&quot;&gt;Hero&lt;/p&gt;" style="verticalLabelPosition=middle;shadow=0;dashed=0;align=center;html=1;verticalAlign=middle;strokeWidth=1;shape=mxgraph.mockup.graphics.simpleIcon;strokeColor=#999999;labelPosition=center;fontStyle=0;fontFamily=Noto Sans;fontSource=https%3A%2F%2Ffonts.googleapis.com%2Fcss%3Ffamily%3DNoto%2BSans;sketch=1;curveFitting=1;jiggle=2;" vertex="1" parent="jdfjYdp7Dpk2zrsOBO0Q-1">
          <mxGeometry x="10" y="200" width="980" height="150" as="geometry" />
        </mxCell>
        <mxCell id="jdfjYdp7Dpk2zrsOBO0Q-8" value="&lt;p style=&quot;font-size: 36px;&quot;&gt;Posts&lt;/p&gt;" style="verticalLabelPosition=middle;shadow=0;dashed=0;align=center;html=1;verticalAlign=middle;strokeWidth=1;shape=mxgraph.mockup.graphics.simpleIcon;strokeColor=#999999;labelPosition=center;fontStyle=0;fontFamily=Noto Sans;fontSource=https%3A%2F%2Ffonts.googleapis.com%2Fcss%3Ffamily%3DNoto%2BSans;sketch=1;curveFitting=1;jiggle=2;" vertex="1" parent="jdfjYdp7Dpk2zrsOBO0Q-1">
          <mxGeometry x="20" y="390" width="940" height="1030" as="geometry" />
        </mxCell>
        <mxCell id="Bv6TClAobCggvYSNfZHS-0" style="edgeStyle=orthogonalEdgeStyle;rounded=0;orthogonalLoop=1;jettySize=auto;html=1;exitX=1;exitY=0.5;exitDx=0;exitDy=0;strokeWidth=4;" edge="1" parent="jdfjYdp7Dpk2zrsOBO0Q-1" source="BR5kYCvfZQOicTjzTiLp-3">
          <mxGeometry relative="1" as="geometry">
            <mxPoint x="1100" y="570" as="targetPoint" />
          </mxGeometry>
        </mxCell>
        <mxCell id="BR5kYCvfZQOicTjzTiLp-3" value="" style="rounded=0;whiteSpace=wrap;html=1;" vertex="1" parent="jdfjYdp7Dpk2zrsOBO0Q-1">
          <mxGeometry x="30" y="410" width="410" height="500" as="geometry" />
        </mxCell>
        <mxCell id="BR5kYCvfZQOicTjzTiLp-1" value="&lt;p style=&quot;font-size: 36px;&quot;&gt;Image&lt;/p&gt;" style="verticalLabelPosition=middle;shadow=0;dashed=0;align=center;html=1;verticalAlign=middle;strokeWidth=1;shape=mxgraph.mockup.graphics.simpleIcon;strokeColor=#999999;labelPosition=center;fontStyle=0;fontFamily=Noto Sans;fontSource=https%3A%2F%2Ffonts.googleapis.com%2Fcss%3Ffamily%3DNoto%2BSans;sketch=1;curveFitting=1;jiggle=2;" vertex="1" parent="jdfjYdp7Dpk2zrsOBO0Q-1">
          <mxGeometry x="50" y="420" width="340" height="310" as="geometry" />
        </mxCell>
        <mxCell id="Bv6TClAobCggvYSNfZHS-2" style="edgeStyle=orthogonalEdgeStyle;rounded=0;orthogonalLoop=1;jettySize=auto;html=1;fontSize=13;strokeWidth=4;" edge="1" parent="jdfjYdp7Dpk2zrsOBO0Q-1" source="BR5kYCvfZQOicTjzTiLp-2">
          <mxGeometry relative="1" as="geometry">
            <mxPoint x="1130" y="845" as="targetPoint" />
          </mxGeometry>
        </mxCell>
        <mxCell id="BR5kYCvfZQOicTjzTiLp-2" value="&lt;p style=&quot;font-size: 23px;&quot;&gt;&lt;span style=&quot;background-color: initial; font-size: 23px;&quot;&gt;Read more&lt;/span&gt;&lt;br style=&quot;font-size: 23px;&quot;&gt;&lt;/p&gt;" style="verticalLabelPosition=middle;shadow=0;dashed=0;align=center;html=1;verticalAlign=middle;strokeWidth=1;shape=mxgraph.mockup.graphics.simpleIcon;strokeColor=#999999;labelPosition=center;fontStyle=0;fontFamily=Noto Sans;fontSource=https%3A%2F%2Ffonts.googleapis.com%2Fcss%3Ffamily%3DNoto%2BSans;sketch=1;curveFitting=1;jiggle=2;fontSize=23;" vertex="1" parent="jdfjYdp7Dpk2zrsOBO0Q-1">
          <mxGeometry x="60" y="820" width="110" height="50" as="geometry" />
        </mxCell>
        <UserObject label="Post card" placeholders="1" name="Variable" id="Bv6TClAobCggvYSNfZHS-1">
          <mxCell style="text;html=1;strokeColor=none;fillColor=none;align=center;verticalAlign=middle;whiteSpace=wrap;overflow=hidden;fontSize=42;" vertex="1" parent="jdfjYdp7Dpk2zrsOBO0Q-1">
            <mxGeometry x="1130" y="540" width="180" height="65" as="geometry" />
          </mxCell>
        </UserObject>
        <UserObject label="Link to Individual post" placeholders="1" name="Variable" id="Bv6TClAobCggvYSNfZHS-3">
          <mxCell style="text;html=1;strokeColor=none;fillColor=none;align=left;verticalAlign=middle;whiteSpace=wrap;overflow=hidden;fontSize=29;" vertex="1" parent="jdfjYdp7Dpk2zrsOBO0Q-1">
            <mxGeometry x="1160" y="812.5" width="310" height="87.5" as="geometry" />
          </mxCell>
        </UserObject>
      </root>
    </mxGraphModel>
  </diagram>
  <diagram name="Individual post" id="z8-I2yXZ72ctRzcJp6PR">
    <mxGraphModel dx="3731" dy="3225" grid="1" gridSize="10" guides="1" tooltips="1" connect="1" arrows="1" fold="1" page="1" pageScale="1" pageWidth="826" pageHeight="1169" background="none" math="0" shadow="0">
      <root>
        <mxCell id="hn_hDiAqOcu1L55KhN0u-0" />
        <mxCell id="hn_hDiAqOcu1L55KhN0u-1" parent="hn_hDiAqOcu1L55KhN0u-0" />
        <mxCell id="hn_hDiAqOcu1L55KhN0u-2" value="" style="strokeWidth=1;shadow=0;dashed=0;align=center;html=1;shape=mxgraph.mockup.containers.browserWindow;rSize=0;strokeColor2=#008cff;strokeColor3=#c4c4c4;mainText=,;recursiveResize=0;movable=0;resizable=0;rotatable=0;deletable=0;editable=0;locked=1;connectable=0;container=0;autosize=0;strokeOpacity=100;fillOpacity=100;fillColor=none;sketch=1;curveFitting=1;jiggle=2;" vertex="1" parent="hn_hDiAqOcu1L55KhN0u-1">
          <mxGeometry y="-90" width="1000" height="1740" as="geometry" />
        </mxCell>
        <mxCell id="hn_hDiAqOcu1L55KhN0u-3" value="Individual post" style="rounded=1;whiteSpace=wrap;html=1;fontSize=42;fontFamily=Noto Sans;fontSource=https%3A%2F%2Ffonts.googleapis.com%2Fcss%3Ffamily%3DNoto%2BSans;align=left;gradientColor=none;fontStyle=1;fillColor=none;strokeColor=none;sketch=1;curveFitting=1;jiggle=2;" vertex="1" parent="hn_hDiAqOcu1L55KhN0u-1">
          <mxGeometry x="3" y="-170" width="700" height="60" as="geometry" />
        </mxCell>
        <mxCell id="hn_hDiAqOcu1L55KhN0u-4" value="&lt;p style=&quot;font-size: 36px;&quot;&gt;Logo&lt;/p&gt;" style="verticalLabelPosition=middle;shadow=0;dashed=0;align=center;html=1;verticalAlign=middle;strokeWidth=1;shape=mxgraph.mockup.graphics.simpleIcon;strokeColor=#999999;labelPosition=center;fontStyle=0;fontFamily=Noto Sans;fontSource=https%3A%2F%2Ffonts.googleapis.com%2Fcss%3Ffamily%3DNoto%2BSans;sketch=1;curveFitting=1;jiggle=2;" vertex="1" parent="hn_hDiAqOcu1L55KhN0u-1">
          <mxGeometry x="30" y="60" width="190" height="90" as="geometry" />
        </mxCell>
        <mxCell id="hn_hDiAqOcu1L55KhN0u-5" value="&lt;p style=&quot;font-size: 36px;&quot;&gt;Top menu&lt;/p&gt;" style="verticalLabelPosition=middle;shadow=0;dashed=0;align=center;html=1;verticalAlign=middle;strokeWidth=1;shape=mxgraph.mockup.graphics.simpleIcon;strokeColor=#999999;labelPosition=center;fontStyle=0;fontFamily=Noto Sans;fontSource=https%3A%2F%2Ffonts.googleapis.com%2Fcss%3Ffamily%3DNoto%2BSans;sketch=1;curveFitting=1;jiggle=2;" vertex="1" parent="hn_hDiAqOcu1L55KhN0u-1">
          <mxGeometry x="420" y="60" width="540" height="90" as="geometry" />
        </mxCell>
        <mxCell id="hn_hDiAqOcu1L55KhN0u-6" value="&lt;p style=&quot;font-size: 36px;&quot;&gt;Footer&lt;/p&gt;" style="verticalLabelPosition=middle;shadow=0;dashed=0;align=center;html=1;verticalAlign=middle;strokeWidth=1;shape=mxgraph.mockup.graphics.simpleIcon;strokeColor=#999999;labelPosition=center;fontStyle=0;fontFamily=Noto Sans;fontSource=https%3A%2F%2Ffonts.googleapis.com%2Fcss%3Ffamily%3DNoto%2BSans;sketch=1;curveFitting=1;jiggle=2;" vertex="1" parent="hn_hDiAqOcu1L55KhN0u-1">
          <mxGeometry x="30" y="1500" width="930" height="130" as="geometry" />
        </mxCell>
        <mxCell id="hn_hDiAqOcu1L55KhN0u-7" value="&lt;p style=&quot;font-size: 36px;&quot;&gt;Hero&lt;/p&gt;" style="verticalLabelPosition=middle;shadow=0;dashed=0;align=center;html=1;verticalAlign=middle;strokeWidth=1;shape=mxgraph.mockup.graphics.simpleIcon;strokeColor=#999999;labelPosition=center;fontStyle=0;fontFamily=Noto Sans;fontSource=https%3A%2F%2Ffonts.googleapis.com%2Fcss%3Ffamily%3DNoto%2BSans;sketch=1;curveFitting=1;jiggle=2;" vertex="1" parent="hn_hDiAqOcu1L55KhN0u-1">
          <mxGeometry x="10" y="200" width="980" height="150" as="geometry" />
        </mxCell>
        <mxCell id="hn_hDiAqOcu1L55KhN0u-10" value="" style="rounded=0;whiteSpace=wrap;html=1;" vertex="1" parent="hn_hDiAqOcu1L55KhN0u-1">
          <mxGeometry x="30" y="410" width="950" height="1020" as="geometry" />
        </mxCell>
        <mxCell id="X-rcv1pr4bSzqXrHqVum-2" value="&lt;h1&gt;Heading&lt;/h1&gt;&lt;p&gt;Labels&lt;/p&gt;Content.&amp;nbsp;&lt;span style=&quot;background-color: initial;&quot;&gt;Lorem ipsum dolor sit amet, consectetur adipisicing elit, sed do eiusmod tempor incididunt ut labore et dolore magna aliqua.&lt;/span&gt;" style="text;html=1;strokeColor=none;fillColor=none;spacing=5;spacingTop=-20;whiteSpace=wrap;overflow=hidden;rounded=0;" vertex="1" parent="hn_hDiAqOcu1L55KhN0u-1">
          <mxGeometry x="80" y="465" width="840" height="120" as="geometry" />
        </mxCell>
        <mxCell id="X-rcv1pr4bSzqXrHqVum-12" value="" style="group" vertex="1" connectable="0" parent="hn_hDiAqOcu1L55KhN0u-1">
          <mxGeometry x="90" y="630" width="700" height="620" as="geometry" />
        </mxCell>
        <mxCell id="X-rcv1pr4bSzqXrHqVum-3" value="" style="verticalLabelPosition=bottom;shadow=0;dashed=0;align=center;html=1;verticalAlign=top;strokeWidth=1;shape=mxgraph.mockup.graphics.simpleIcon;strokeColor=#999999;fillColor=#ffffff;" vertex="1" parent="X-rcv1pr4bSzqXrHqVum-12">
          <mxGeometry width="175" height="155" as="geometry" />
        </mxCell>
        <mxCell id="X-rcv1pr4bSzqXrHqVum-4" value="" style="verticalLabelPosition=bottom;shadow=0;dashed=0;align=center;html=1;verticalAlign=top;strokeWidth=1;shape=mxgraph.mockup.graphics.simpleIcon;strokeColor=#999999;fillColor=#ffffff;" vertex="1" parent="X-rcv1pr4bSzqXrHqVum-12">
          <mxGeometry x="262.5" width="175" height="155" as="geometry" />
        </mxCell>
        <mxCell id="X-rcv1pr4bSzqXrHqVum-5" value="" style="verticalLabelPosition=bottom;shadow=0;dashed=0;align=center;html=1;verticalAlign=top;strokeWidth=1;shape=mxgraph.mockup.graphics.simpleIcon;strokeColor=#999999;fillColor=#ffffff;" vertex="1" parent="X-rcv1pr4bSzqXrHqVum-12">
          <mxGeometry x="525" width="175" height="155" as="geometry" />
        </mxCell>
        <mxCell id="X-rcv1pr4bSzqXrHqVum-6" value="" style="verticalLabelPosition=bottom;shadow=0;dashed=0;align=center;html=1;verticalAlign=top;strokeWidth=1;shape=mxgraph.mockup.graphics.simpleIcon;strokeColor=#999999;fillColor=#ffffff;" vertex="1" parent="X-rcv1pr4bSzqXrHqVum-12">
          <mxGeometry y="232.5" width="175" height="155" as="geometry" />
        </mxCell>
        <mxCell id="X-rcv1pr4bSzqXrHqVum-7" value="" style="verticalLabelPosition=bottom;shadow=0;dashed=0;align=center;html=1;verticalAlign=top;strokeWidth=1;shape=mxgraph.mockup.graphics.simpleIcon;strokeColor=#999999;fillColor=#ffffff;" vertex="1" parent="X-rcv1pr4bSzqXrHqVum-12">
          <mxGeometry x="262.5" y="232.5" width="175" height="155" as="geometry" />
        </mxCell>
        <mxCell id="X-rcv1pr4bSzqXrHqVum-13" style="edgeStyle=orthogonalEdgeStyle;rounded=0;orthogonalLoop=1;jettySize=auto;html=1;strokeWidth=4;" edge="1" parent="X-rcv1pr4bSzqXrHqVum-12" source="X-rcv1pr4bSzqXrHqVum-8">
          <mxGeometry relative="1" as="geometry">
            <mxPoint x="1100" y="320" as="targetPoint" />
          </mxGeometry>
        </mxCell>
        <mxCell id="X-rcv1pr4bSzqXrHqVum-8" value="" style="verticalLabelPosition=bottom;shadow=0;dashed=0;align=center;html=1;verticalAlign=top;strokeWidth=1;shape=mxgraph.mockup.graphics.simpleIcon;strokeColor=#999999;fillColor=#ffffff;" vertex="1" parent="X-rcv1pr4bSzqXrHqVum-12">
          <mxGeometry x="525" y="232.5" width="175" height="155" as="geometry" />
        </mxCell>
        <mxCell id="X-rcv1pr4bSzqXrHqVum-9" value="" style="verticalLabelPosition=bottom;shadow=0;dashed=0;align=center;html=1;verticalAlign=top;strokeWidth=1;shape=mxgraph.mockup.graphics.simpleIcon;strokeColor=#999999;fillColor=#ffffff;" vertex="1" parent="X-rcv1pr4bSzqXrHqVum-12">
          <mxGeometry y="465" width="175" height="155" as="geometry" />
        </mxCell>
        <mxCell id="X-rcv1pr4bSzqXrHqVum-10" value="" style="verticalLabelPosition=bottom;shadow=0;dashed=0;align=center;html=1;verticalAlign=top;strokeWidth=1;shape=mxgraph.mockup.graphics.simpleIcon;strokeColor=#999999;fillColor=#ffffff;" vertex="1" parent="X-rcv1pr4bSzqXrHqVum-12">
          <mxGeometry x="262.5" y="465" width="175" height="155" as="geometry" />
        </mxCell>
        <mxCell id="X-rcv1pr4bSzqXrHqVum-11" value="" style="verticalLabelPosition=bottom;shadow=0;dashed=0;align=center;html=1;verticalAlign=top;strokeWidth=1;shape=mxgraph.mockup.graphics.simpleIcon;strokeColor=#999999;fillColor=#ffffff;" vertex="1" parent="X-rcv1pr4bSzqXrHqVum-12">
          <mxGeometry x="525" y="465" width="175" height="155" as="geometry" />
        </mxCell>
        <mxCell id="X-rcv1pr4bSzqXrHqVum-15" value="Post Gallery" style="text;strokeColor=none;fillColor=none;html=1;fontSize=24;fontStyle=1;verticalAlign=middle;align=center;" vertex="1" parent="hn_hDiAqOcu1L55KhN0u-1">
          <mxGeometry x="1220" y="920" width="100" height="40" as="geometry" />
        </mxCell>
      </root>
    </mxGraphModel>
  </diagram>
  <diagram name="Team" id="t0dOLN3MZ9JJS4J-Cezv">
    <mxGraphModel dx="3731" dy="3225" grid="1" gridSize="10" guides="1" tooltips="1" connect="1" arrows="1" fold="1" page="1" pageScale="1" pageWidth="826" pageHeight="1169" background="none" math="0" shadow="0">
      <root>
        <mxCell id="-WmPnrNF6t_q7OGe2ewF-0" />
        <mxCell id="-WmPnrNF6t_q7OGe2ewF-1" parent="-WmPnrNF6t_q7OGe2ewF-0" />
        <mxCell id="-WmPnrNF6t_q7OGe2ewF-2" value="" style="strokeWidth=1;shadow=0;dashed=0;align=center;html=1;shape=mxgraph.mockup.containers.browserWindow;rSize=0;strokeColor2=#008cff;strokeColor3=#c4c4c4;mainText=,;recursiveResize=0;movable=0;resizable=0;rotatable=0;deletable=0;editable=0;locked=1;connectable=0;container=0;autosize=0;strokeOpacity=100;fillOpacity=100;fillColor=none;sketch=1;curveFitting=1;jiggle=2;" vertex="1" parent="-WmPnrNF6t_q7OGe2ewF-1">
          <mxGeometry y="-90" width="1000" height="1740" as="geometry" />
        </mxCell>
        <mxCell id="-WmPnrNF6t_q7OGe2ewF-3" value="Our team" style="rounded=1;whiteSpace=wrap;html=1;fontSize=42;fontFamily=Noto Sans;fontSource=https%3A%2F%2Ffonts.googleapis.com%2Fcss%3Ffamily%3DNoto%2BSans;align=left;gradientColor=none;fontStyle=1;fillColor=none;strokeColor=none;sketch=1;curveFitting=1;jiggle=2;" vertex="1" parent="-WmPnrNF6t_q7OGe2ewF-1">
          <mxGeometry x="3" y="-170" width="700" height="60" as="geometry" />
        </mxCell>
        <mxCell id="-WmPnrNF6t_q7OGe2ewF-4" value="&lt;p style=&quot;font-size: 36px;&quot;&gt;Logo&lt;/p&gt;" style="verticalLabelPosition=middle;shadow=0;dashed=0;align=center;html=1;verticalAlign=middle;strokeWidth=1;shape=mxgraph.mockup.graphics.simpleIcon;strokeColor=#999999;labelPosition=center;fontStyle=0;fontFamily=Noto Sans;fontSource=https%3A%2F%2Ffonts.googleapis.com%2Fcss%3Ffamily%3DNoto%2BSans;sketch=1;curveFitting=1;jiggle=2;" vertex="1" parent="-WmPnrNF6t_q7OGe2ewF-1">
          <mxGeometry x="30" y="60" width="190" height="90" as="geometry" />
        </mxCell>
        <mxCell id="-WmPnrNF6t_q7OGe2ewF-5" value="&lt;p style=&quot;font-size: 36px;&quot;&gt;Top menu&lt;/p&gt;" style="verticalLabelPosition=middle;shadow=0;dashed=0;align=center;html=1;verticalAlign=middle;strokeWidth=1;shape=mxgraph.mockup.graphics.simpleIcon;strokeColor=#999999;labelPosition=center;fontStyle=0;fontFamily=Noto Sans;fontSource=https%3A%2F%2Ffonts.googleapis.com%2Fcss%3Ffamily%3DNoto%2BSans;sketch=1;curveFitting=1;jiggle=2;" vertex="1" parent="-WmPnrNF6t_q7OGe2ewF-1">
          <mxGeometry x="420" y="60" width="540" height="90" as="geometry" />
        </mxCell>
        <mxCell id="-WmPnrNF6t_q7OGe2ewF-6" value="&lt;p style=&quot;font-size: 36px;&quot;&gt;Footer&lt;/p&gt;" style="verticalLabelPosition=middle;shadow=0;dashed=0;align=center;html=1;verticalAlign=middle;strokeWidth=1;shape=mxgraph.mockup.graphics.simpleIcon;strokeColor=#999999;labelPosition=center;fontStyle=0;fontFamily=Noto Sans;fontSource=https%3A%2F%2Ffonts.googleapis.com%2Fcss%3Ffamily%3DNoto%2BSans;sketch=1;curveFitting=1;jiggle=2;" vertex="1" parent="-WmPnrNF6t_q7OGe2ewF-1">
          <mxGeometry x="30" y="1500" width="930" height="130" as="geometry" />
        </mxCell>
        <mxCell id="-WmPnrNF6t_q7OGe2ewF-7" value="&lt;p style=&quot;font-size: 36px;&quot;&gt;Hero&lt;/p&gt;" style="verticalLabelPosition=middle;shadow=0;dashed=0;align=center;html=1;verticalAlign=middle;strokeWidth=1;shape=mxgraph.mockup.graphics.simpleIcon;strokeColor=#999999;labelPosition=center;fontStyle=0;fontFamily=Noto Sans;fontSource=https%3A%2F%2Ffonts.googleapis.com%2Fcss%3Ffamily%3DNoto%2BSans;sketch=1;curveFitting=1;jiggle=2;" vertex="1" parent="-WmPnrNF6t_q7OGe2ewF-1">
          <mxGeometry x="10" y="200" width="980" height="150" as="geometry" />
        </mxCell>
        <mxCell id="rbIrEuQOAQgCsgnWcWE9-9" value="Team&#xa;Profile pictures" style="group;fontSize=30;verticalAlign=middle;fontFamily=Noto Sans;fontSource=https%3A%2F%2Ffonts.googleapis.com%2Fcss%3Ffamily%3DNoto%2BSans;" vertex="1" connectable="0" parent="-WmPnrNF6t_q7OGe2ewF-1">
          <mxGeometry x="60" y="420" width="900" height="920" as="geometry" />
        </mxCell>
        <mxCell id="rbIrEuQOAQgCsgnWcWE9-4" value="" style="verticalLabelPosition=bottom;shadow=0;dashed=0;align=center;html=1;verticalAlign=top;strokeWidth=1;shape=mxgraph.mockup.graphics.simpleIcon;strokeColor=#999999;fillColor=#ffffff;" vertex="1" parent="rbIrEuQOAQgCsgnWcWE9-9">
          <mxGeometry x="337.5" y="345" width="225" height="230" as="geometry" />
        </mxCell>
        <mxCell id="rbIrEuQOAQgCsgnWcWE9-0" value="" style="verticalLabelPosition=bottom;shadow=0;dashed=0;align=center;html=1;verticalAlign=top;strokeWidth=1;shape=mxgraph.mockup.graphics.simpleIcon;strokeColor=#999999;fillColor=#ffffff;" vertex="1" parent="rbIrEuQOAQgCsgnWcWE9-9">
          <mxGeometry width="225" height="230" as="geometry" />
        </mxCell>
        <mxCell id="rbIrEuQOAQgCsgnWcWE9-1" value="" style="verticalLabelPosition=bottom;shadow=0;dashed=0;align=center;html=1;verticalAlign=top;strokeWidth=1;shape=mxgraph.mockup.graphics.simpleIcon;strokeColor=#999999;fillColor=#ffffff;" vertex="1" parent="rbIrEuQOAQgCsgnWcWE9-9">
          <mxGeometry x="337.5" width="225" height="230" as="geometry" />
        </mxCell>
        <mxCell id="rbIrEuQOAQgCsgnWcWE9-2" value="" style="verticalLabelPosition=bottom;shadow=0;dashed=0;align=center;html=1;verticalAlign=top;strokeWidth=1;shape=mxgraph.mockup.graphics.simpleIcon;strokeColor=#999999;fillColor=#ffffff;" vertex="1" parent="rbIrEuQOAQgCsgnWcWE9-9">
          <mxGeometry x="675" width="225" height="230" as="geometry" />
        </mxCell>
        <mxCell id="rbIrEuQOAQgCsgnWcWE9-3" value="" style="verticalLabelPosition=bottom;shadow=0;dashed=0;align=center;html=1;verticalAlign=top;strokeWidth=1;shape=mxgraph.mockup.graphics.simpleIcon;strokeColor=#999999;fillColor=#ffffff;" vertex="1" parent="rbIrEuQOAQgCsgnWcWE9-9">
          <mxGeometry y="345" width="225" height="230" as="geometry" />
        </mxCell>
        <mxCell id="rbIrEuQOAQgCsgnWcWE9-5" value="" style="verticalLabelPosition=bottom;shadow=0;dashed=0;align=center;html=1;verticalAlign=top;strokeWidth=1;shape=mxgraph.mockup.graphics.simpleIcon;strokeColor=#999999;fillColor=#ffffff;" vertex="1" parent="rbIrEuQOAQgCsgnWcWE9-9">
          <mxGeometry x="675" y="345" width="225" height="230" as="geometry" />
        </mxCell>
        <mxCell id="rbIrEuQOAQgCsgnWcWE9-6" value="" style="verticalLabelPosition=bottom;shadow=0;dashed=0;align=center;html=1;verticalAlign=top;strokeWidth=1;shape=mxgraph.mockup.graphics.simpleIcon;strokeColor=#999999;fillColor=#ffffff;" vertex="1" parent="rbIrEuQOAQgCsgnWcWE9-9">
          <mxGeometry y="690" width="225" height="230" as="geometry" />
        </mxCell>
        <mxCell id="rbIrEuQOAQgCsgnWcWE9-7" value="" style="verticalLabelPosition=bottom;shadow=0;dashed=0;align=center;html=1;verticalAlign=top;strokeWidth=1;shape=mxgraph.mockup.graphics.simpleIcon;strokeColor=#999999;fillColor=#ffffff;" vertex="1" parent="rbIrEuQOAQgCsgnWcWE9-9">
          <mxGeometry x="337.5" y="690" width="225" height="230" as="geometry" />
        </mxCell>
        <mxCell id="rbIrEuQOAQgCsgnWcWE9-8" value="" style="verticalLabelPosition=bottom;shadow=0;dashed=0;align=center;html=1;verticalAlign=top;strokeWidth=1;shape=mxgraph.mockup.graphics.simpleIcon;strokeColor=#999999;fillColor=#ffffff;" vertex="1" parent="rbIrEuQOAQgCsgnWcWE9-9">
          <mxGeometry x="675" y="690" width="225" height="230" as="geometry" />
        </mxCell>
      </root>
    </mxGraphModel>
  </diagram>
  <diagram id="FgCRfOj3CnbWsxEqC-fM" name="Individual profile">
    <mxGraphModel dx="3731" dy="3225" grid="1" gridSize="10" guides="1" tooltips="1" connect="1" arrows="1" fold="1" page="1" pageScale="1" pageWidth="827" pageHeight="1169" math="0" shadow="0">
      <root>
        <mxCell id="0" />
        <mxCell id="1" parent="0" />
        <mxCell id="vgstjV62nQQDFDdGLysw-1" value="" style="strokeWidth=1;shadow=0;dashed=0;align=center;html=1;shape=mxgraph.mockup.containers.browserWindow;rSize=0;strokeColor2=#008cff;strokeColor3=#c4c4c4;mainText=,;recursiveResize=0;movable=0;resizable=0;rotatable=0;deletable=0;editable=0;locked=1;connectable=0;container=0;autosize=0;strokeOpacity=100;fillOpacity=100;fillColor=none;sketch=1;curveFitting=1;jiggle=2;" vertex="1" parent="1">
          <mxGeometry y="-90" width="1000" height="1740" as="geometry" />
        </mxCell>
        <mxCell id="vgstjV62nQQDFDdGLysw-2" value="Individual Profile" style="rounded=1;whiteSpace=wrap;html=1;fontSize=42;fontFamily=Noto Sans;fontSource=https%3A%2F%2Ffonts.googleapis.com%2Fcss%3Ffamily%3DNoto%2BSans;align=left;gradientColor=none;fontStyle=1;fillColor=none;strokeColor=none;sketch=1;curveFitting=1;jiggle=2;" vertex="1" parent="1">
          <mxGeometry x="3" y="-170" width="700" height="60" as="geometry" />
        </mxCell>
        <mxCell id="vgstjV62nQQDFDdGLysw-3" value="&lt;p style=&quot;font-size: 36px;&quot;&gt;Logo&lt;/p&gt;" style="verticalLabelPosition=middle;shadow=0;dashed=0;align=center;html=1;verticalAlign=middle;strokeWidth=1;shape=mxgraph.mockup.graphics.simpleIcon;strokeColor=#CCCCCC;labelPosition=center;fontStyle=0;fontFamily=Noto Sans;fontSource=https%3A%2F%2Ffonts.googleapis.com%2Fcss%3Ffamily%3DNoto%2BSans;sketch=1;curveFitting=1;jiggle=2;" vertex="1" parent="1">
          <mxGeometry x="30" y="60" width="190" height="100" as="geometry" />
        </mxCell>
        <mxCell id="vgstjV62nQQDFDdGLysw-4" value="&lt;p style=&quot;font-size: 36px;&quot;&gt;Footer&lt;/p&gt;" style="verticalLabelPosition=middle;shadow=0;dashed=0;align=center;html=1;verticalAlign=middle;strokeWidth=1;shape=mxgraph.mockup.graphics.simpleIcon;strokeColor=#999999;labelPosition=center;fontStyle=0;fontFamily=Noto Sans;fontSource=https%3A%2F%2Ffonts.googleapis.com%2Fcss%3Ffamily%3DNoto%2BSans;sketch=1;curveFitting=1;jiggle=2;" vertex="1" parent="1">
          <mxGeometry x="30" y="1500" width="930" height="130" as="geometry" />
        </mxCell>
        <mxCell id="vgstjV62nQQDFDdGLysw-5" value="&lt;p style=&quot;font-size: 36px;&quot;&gt;&lt;br&gt;&lt;/p&gt;" style="verticalLabelPosition=middle;shadow=0;dashed=0;align=center;html=1;verticalAlign=middle;strokeWidth=1;shape=mxgraph.mockup.graphics.simpleIcon;strokeColor=#CCCCCC;labelPosition=center;fontStyle=0;fontFamily=Noto Sans;fontSource=https%3A%2F%2Ffonts.googleapis.com%2Fcss%3Ffamily%3DNoto%2BSans;sketch=1;curveFitting=1;jiggle=2;" vertex="1" parent="1">
          <mxGeometry x="10" y="200" width="980" height="150" as="geometry" />
        </mxCell>
        <mxCell id="vgstjV62nQQDFDdGLysw-6" value="" style="rounded=0;whiteSpace=wrap;html=1;strokeColor=#CCCCCC;" vertex="1" parent="1">
          <mxGeometry x="20" y="400" width="960" height="960" as="geometry" />
        </mxCell>
        <mxCell id="vgstjV62nQQDFDdGLysw-10" value="Profile picture" style="verticalLabelPosition=middle;shadow=0;dashed=0;align=center;html=1;verticalAlign=middle;strokeWidth=1;shape=mxgraph.mockup.graphics.simpleIcon;strokeColor=#999999;labelPosition=center;fontSize=42;fontFamily=Noto Sans;fontSource=https%3A%2F%2Ffonts.googleapis.com%2Fcss%3Ffamily%3DNoto%2BSans;" vertex="1" parent="1">
          <mxGeometry x="60" y="440" width="370" height="350" as="geometry" />
        </mxCell>
        <UserObject label="&lt;div style=&quot;text-align: left;&quot;&gt;&lt;span style=&quot;background-color: initial;&quot;&gt;Name&lt;/span&gt;&lt;/div&gt;" placeholders="1" name="Variable" id="vgstjV62nQQDFDdGLysw-11">
          <mxCell style="text;html=1;strokeColor=none;fillColor=none;align=center;verticalAlign=middle;whiteSpace=wrap;overflow=hidden;fontSize=42;" vertex="1" parent="1">
            <mxGeometry x="300" y="242.5" width="390" height="65" as="geometry" />
          </mxCell>
        </UserObject>
        <mxCell id="vgstjV62nQQDFDdGLysw-12" value="Bio" style="rounded=0;whiteSpace=wrap;html=1;strokeColor=#CCCCCC;fontSize=42;fontFamily=Noto Sans;fontSource=https%3A%2F%2Ffonts.googleapis.com%2Fcss%3Ffamily%3DNoto%2BSans;" vertex="1" parent="1">
          <mxGeometry x="60" y="840" width="880" height="420" as="geometry" />
        </mxCell>
      </root>
    </mxGraphModel>
  </diagram>
  <diagram name="About us" id="v3fmZtjsOE5whi_bgi4x">
    <mxGraphModel dx="3731" dy="3225" grid="1" gridSize="10" guides="1" tooltips="1" connect="1" arrows="1" fold="1" page="1" pageScale="1" pageWidth="826" pageHeight="1169" background="none" math="0" shadow="0">
      <root>
        <mxCell id="QhdB31TDtFRzjvZzMdlw-0" />
        <mxCell id="QhdB31TDtFRzjvZzMdlw-1" parent="QhdB31TDtFRzjvZzMdlw-0" />
        <mxCell id="QhdB31TDtFRzjvZzMdlw-2" value="" style="strokeWidth=1;shadow=0;dashed=0;align=center;html=1;shape=mxgraph.mockup.containers.browserWindow;rSize=0;strokeColor2=#008cff;strokeColor3=#c4c4c4;mainText=,;recursiveResize=0;movable=0;resizable=0;rotatable=0;deletable=0;editable=0;locked=1;connectable=0;container=0;autosize=0;strokeOpacity=100;fillOpacity=100;fillColor=none;sketch=1;curveFitting=1;jiggle=2;" vertex="1" parent="QhdB31TDtFRzjvZzMdlw-1">
          <mxGeometry y="-90" width="1000" height="1740" as="geometry" />
        </mxCell>
        <mxCell id="QhdB31TDtFRzjvZzMdlw-3" value="About us" style="rounded=1;whiteSpace=wrap;html=1;fontSize=42;fontFamily=Noto Sans;fontSource=https%3A%2F%2Ffonts.googleapis.com%2Fcss%3Ffamily%3DNoto%2BSans;align=left;gradientColor=none;fontStyle=1;fillColor=none;strokeColor=none;sketch=1;curveFitting=1;jiggle=2;" vertex="1" parent="QhdB31TDtFRzjvZzMdlw-1">
          <mxGeometry x="3" y="-170" width="700" height="60" as="geometry" />
        </mxCell>
        <mxCell id="QhdB31TDtFRzjvZzMdlw-4" value="&lt;p style=&quot;font-size: 36px;&quot;&gt;Logo&lt;/p&gt;" style="verticalLabelPosition=middle;shadow=0;dashed=0;align=center;html=1;verticalAlign=middle;strokeWidth=1;shape=mxgraph.mockup.graphics.simpleIcon;strokeColor=#CCCCCC;labelPosition=center;fontStyle=0;fontFamily=Noto Sans;fontSource=https%3A%2F%2Ffonts.googleapis.com%2Fcss%3Ffamily%3DNoto%2BSans;sketch=1;curveFitting=1;jiggle=2;" vertex="1" parent="QhdB31TDtFRzjvZzMdlw-1">
          <mxGeometry x="30" y="60" width="190" height="100" as="geometry" />
        </mxCell>
        <mxCell id="QhdB31TDtFRzjvZzMdlw-5" value="&lt;p style=&quot;font-size: 36px;&quot;&gt;Top menu&lt;/p&gt;" style="verticalLabelPosition=middle;shadow=0;dashed=0;align=center;html=1;verticalAlign=middle;strokeWidth=1;shape=mxgraph.mockup.graphics.simpleIcon;strokeColor=#CCCCCC;labelPosition=center;fontStyle=0;fontFamily=Noto Sans;fontSource=https%3A%2F%2Ffonts.googleapis.com%2Fcss%3Ffamily%3DNoto%2BSans;sketch=1;curveFitting=1;jiggle=2;" vertex="1" parent="QhdB31TDtFRzjvZzMdlw-1">
          <mxGeometry x="420" y="60" width="540" height="100" as="geometry" />
        </mxCell>
        <mxCell id="QhdB31TDtFRzjvZzMdlw-6" value="&lt;p style=&quot;font-size: 36px;&quot;&gt;Footer&lt;/p&gt;" style="verticalLabelPosition=middle;shadow=0;dashed=0;align=center;html=1;verticalAlign=middle;strokeWidth=1;shape=mxgraph.mockup.graphics.simpleIcon;strokeColor=#999999;labelPosition=center;fontStyle=0;fontFamily=Noto Sans;fontSource=https%3A%2F%2Ffonts.googleapis.com%2Fcss%3Ffamily%3DNoto%2BSans;sketch=1;curveFitting=1;jiggle=2;" vertex="1" parent="QhdB31TDtFRzjvZzMdlw-1">
          <mxGeometry x="30" y="1500" width="930" height="130" as="geometry" />
        </mxCell>
        <mxCell id="QhdB31TDtFRzjvZzMdlw-7" value="&lt;p style=&quot;font-size: 36px;&quot;&gt;Hero&lt;/p&gt;" style="verticalLabelPosition=middle;shadow=0;dashed=0;align=center;html=1;verticalAlign=middle;strokeWidth=1;shape=mxgraph.mockup.graphics.simpleIcon;strokeColor=#CCCCCC;labelPosition=center;fontStyle=0;fontFamily=Noto Sans;fontSource=https%3A%2F%2Ffonts.googleapis.com%2Fcss%3Ffamily%3DNoto%2BSans;sketch=1;curveFitting=1;jiggle=2;" vertex="1" parent="QhdB31TDtFRzjvZzMdlw-1">
          <mxGeometry x="10" y="200" width="980" height="150" as="geometry" />
        </mxCell>
        <mxCell id="39Dxmuy9fpLhxwYbfUVS-1" value="" style="rounded=0;whiteSpace=wrap;html=1;strokeColor=#CCCCCC;" vertex="1" parent="QhdB31TDtFRzjvZzMdlw-1">
          <mxGeometry x="20" y="400" width="960" height="960" as="geometry" />
        </mxCell>
        <mxCell id="39Dxmuy9fpLhxwYbfUVS-0" value="About image" style="verticalLabelPosition=middle;shadow=0;dashed=0;align=center;html=1;verticalAlign=middle;strokeWidth=1;shape=mxgraph.mockup.graphics.simpleIcon;strokeColor=#CCCCCC;fontSize=42;fontFamily=Noto Sans;fontSource=https%3A%2F%2Ffonts.googleapis.com%2Fcss%3Ffamily%3DNoto%2BSans;labelPosition=center;" vertex="1" parent="QhdB31TDtFRzjvZzMdlw-1">
          <mxGeometry x="50" y="430" width="370" height="550" as="geometry" />
        </mxCell>
        <UserObject label="About copy" placeholders="1" name="Variable" id="39Dxmuy9fpLhxwYbfUVS-2">
          <mxCell style="text;html=1;strokeColor=#CCCCCC;fillColor=none;align=center;verticalAlign=middle;whiteSpace=wrap;overflow=hidden;fontFamily=Noto Sans;fontSource=https%3A%2F%2Ffonts.googleapis.com%2Fcss%3Ffamily%3DNoto%2BSans;fontSize=42;" vertex="1" parent="QhdB31TDtFRzjvZzMdlw-1">
            <mxGeometry x="490" y="430" width="460" height="550" as="geometry" />
          </mxCell>
        </UserObject>
      </root>
    </mxGraphModel>
  </diagram>
  <diagram name="FAQ" id="VAgHx4utat0CnDQv6j2j">
    <mxGraphModel dx="2052" dy="2300" grid="1" gridSize="10" guides="1" tooltips="1" connect="1" arrows="1" fold="1" page="1" pageScale="1" pageWidth="826" pageHeight="1169" background="none" math="0" shadow="0">
      <root>
        <mxCell id="tgqkzlV-fry_4ats4oUR-0" />
        <mxCell id="tgqkzlV-fry_4ats4oUR-1" parent="tgqkzlV-fry_4ats4oUR-0" />
        <mxCell id="tgqkzlV-fry_4ats4oUR-2" value="" style="strokeWidth=1;shadow=0;dashed=0;align=center;html=1;shape=mxgraph.mockup.containers.browserWindow;rSize=0;strokeColor2=#008cff;strokeColor3=#c4c4c4;mainText=,;recursiveResize=0;movable=0;resizable=0;rotatable=0;deletable=0;editable=0;locked=1;connectable=0;container=0;autosize=0;strokeOpacity=100;fillOpacity=100;fillColor=none;sketch=1;curveFitting=1;jiggle=2;" vertex="1" parent="tgqkzlV-fry_4ats4oUR-1">
          <mxGeometry y="-90" width="1000" height="1740" as="geometry" />
        </mxCell>
        <mxCell id="tgqkzlV-fry_4ats4oUR-3" value="FAQ" style="rounded=1;whiteSpace=wrap;html=1;fontSize=42;fontFamily=Noto Sans;fontSource=https%3A%2F%2Ffonts.googleapis.com%2Fcss%3Ffamily%3DNoto%2BSans;align=left;gradientColor=none;fontStyle=1;fillColor=none;strokeColor=none;sketch=1;curveFitting=1;jiggle=2;" vertex="1" parent="tgqkzlV-fry_4ats4oUR-1">
          <mxGeometry x="3" y="-170" width="700" height="60" as="geometry" />
        </mxCell>
        <mxCell id="tgqkzlV-fry_4ats4oUR-4" value="&lt;p style=&quot;font-size: 36px;&quot;&gt;Logo&lt;/p&gt;" style="verticalLabelPosition=middle;shadow=0;dashed=0;align=center;html=1;verticalAlign=middle;strokeWidth=1;shape=mxgraph.mockup.graphics.simpleIcon;strokeColor=#CCCCCC;labelPosition=center;fontStyle=0;fontFamily=Noto Sans;fontSource=https%3A%2F%2Ffonts.googleapis.com%2Fcss%3Ffamily%3DNoto%2BSans;sketch=1;curveFitting=1;jiggle=2;" vertex="1" parent="tgqkzlV-fry_4ats4oUR-1">
          <mxGeometry x="30" y="60" width="190" height="100" as="geometry" />
        </mxCell>
        <mxCell id="tgqkzlV-fry_4ats4oUR-5" value="&lt;p style=&quot;font-size: 36px;&quot;&gt;Top menu&lt;/p&gt;" style="verticalLabelPosition=middle;shadow=0;dashed=0;align=center;html=1;verticalAlign=middle;strokeWidth=1;shape=mxgraph.mockup.graphics.simpleIcon;strokeColor=#CCCCCC;labelPosition=center;fontStyle=0;fontFamily=Noto Sans;fontSource=https%3A%2F%2Ffonts.googleapis.com%2Fcss%3Ffamily%3DNoto%2BSans;sketch=1;curveFitting=1;jiggle=2;" vertex="1" parent="tgqkzlV-fry_4ats4oUR-1">
          <mxGeometry x="420" y="60" width="540" height="100" as="geometry" />
        </mxCell>
        <mxCell id="tgqkzlV-fry_4ats4oUR-6" value="&lt;p style=&quot;font-size: 36px;&quot;&gt;Footer&lt;/p&gt;" style="verticalLabelPosition=middle;shadow=0;dashed=0;align=center;html=1;verticalAlign=middle;strokeWidth=1;shape=mxgraph.mockup.graphics.simpleIcon;strokeColor=#999999;labelPosition=center;fontStyle=0;fontFamily=Noto Sans;fontSource=https%3A%2F%2Ffonts.googleapis.com%2Fcss%3Ffamily%3DNoto%2BSans;sketch=1;curveFitting=1;jiggle=2;" vertex="1" parent="tgqkzlV-fry_4ats4oUR-1">
          <mxGeometry x="30" y="1500" width="930" height="130" as="geometry" />
        </mxCell>
        <mxCell id="tgqkzlV-fry_4ats4oUR-7" value="&lt;p style=&quot;font-size: 36px;&quot;&gt;Hero&lt;/p&gt;" style="verticalLabelPosition=middle;shadow=0;dashed=0;align=center;html=1;verticalAlign=middle;strokeWidth=1;shape=mxgraph.mockup.graphics.simpleIcon;strokeColor=#CCCCCC;labelPosition=center;fontStyle=0;fontFamily=Noto Sans;fontSource=https%3A%2F%2Ffonts.googleapis.com%2Fcss%3Ffamily%3DNoto%2BSans;sketch=1;curveFitting=1;jiggle=2;" vertex="1" parent="tgqkzlV-fry_4ats4oUR-1">
          <mxGeometry x="10" y="200" width="980" height="150" as="geometry" />
        </mxCell>
        <mxCell id="tgqkzlV-fry_4ats4oUR-8" value="" style="rounded=0;whiteSpace=wrap;html=1;strokeColor=#CCCCCC;" vertex="1" parent="tgqkzlV-fry_4ats4oUR-1">
          <mxGeometry x="20" y="400" width="960" height="960" as="geometry" />
        </mxCell>
        <mxCell id="tgqkzlV-fry_4ats4oUR-9" value="Questions" style="verticalLabelPosition=middle;shadow=0;dashed=0;align=center;html=1;verticalAlign=middle;strokeWidth=1;shape=mxgraph.mockup.graphics.simpleIcon;strokeColor=#CCCCCC;fontSize=42;fontFamily=Noto Sans;fontSource=https%3A%2F%2Ffonts.googleapis.com%2Fcss%3Ffamily%3DNoto%2BSans;labelPosition=center;" vertex="1" parent="tgqkzlV-fry_4ats4oUR-1">
          <mxGeometry x="530" y="420" width="430" height="910" as="geometry" />
        </mxCell>
        <UserObject label="FAQ Update" placeholders="1" name="Variable" id="tgqkzlV-fry_4ats4oUR-10">
          <mxCell style="text;html=1;strokeColor=#CCCCCC;fillColor=none;align=center;verticalAlign=middle;whiteSpace=wrap;overflow=hidden;fontFamily=Noto Sans;fontSource=https%3A%2F%2Ffonts.googleapis.com%2Fcss%3Ffamily%3DNoto%2BSans;fontSize=42;" vertex="1" parent="tgqkzlV-fry_4ats4oUR-1">
            <mxGeometry x="40" y="420" width="460" height="260" as="geometry" />
          </mxCell>
        </UserObject>
      </root>
    </mxGraphModel>
  </diagram>
  <diagram name="Contact" id="KI8_qvUTZoGi4f_N8v6D">
    <mxGraphModel dx="4104" dy="3431" grid="1" gridSize="10" guides="1" tooltips="1" connect="1" arrows="1" fold="1" page="1" pageScale="1" pageWidth="826" pageHeight="1169" background="none" math="0" shadow="0">
      <root>
        <mxCell id="qlO3pkbu8yI7qJ5NsXcW-0" />
        <mxCell id="qlO3pkbu8yI7qJ5NsXcW-1" parent="qlO3pkbu8yI7qJ5NsXcW-0" />
        <mxCell id="qlO3pkbu8yI7qJ5NsXcW-2" value="" style="strokeWidth=1;shadow=0;dashed=0;align=center;html=1;shape=mxgraph.mockup.containers.browserWindow;rSize=0;strokeColor2=#008cff;strokeColor3=#c4c4c4;mainText=,;recursiveResize=0;movable=0;resizable=0;rotatable=0;deletable=0;editable=0;locked=1;connectable=0;container=0;autosize=0;strokeOpacity=100;fillOpacity=100;fillColor=none;sketch=1;curveFitting=1;jiggle=2;" vertex="1" parent="qlO3pkbu8yI7qJ5NsXcW-1">
          <mxGeometry y="-90" width="1000" height="1740" as="geometry" />
        </mxCell>
        <mxCell id="qlO3pkbu8yI7qJ5NsXcW-3" value="Contact" style="rounded=1;whiteSpace=wrap;html=1;fontSize=42;fontFamily=Noto Sans;fontSource=https%3A%2F%2Ffonts.googleapis.com%2Fcss%3Ffamily%3DNoto%2BSans;align=left;gradientColor=none;fontStyle=1;fillColor=none;strokeColor=none;sketch=1;curveFitting=1;jiggle=2;" vertex="1" parent="qlO3pkbu8yI7qJ5NsXcW-1">
          <mxGeometry x="3" y="-170" width="700" height="60" as="geometry" />
        </mxCell>
        <mxCell id="qlO3pkbu8yI7qJ5NsXcW-4" value="&lt;p style=&quot;font-size: 36px;&quot;&gt;Logo&lt;/p&gt;" style="verticalLabelPosition=middle;shadow=0;dashed=0;align=center;html=1;verticalAlign=middle;strokeWidth=1;shape=mxgraph.mockup.graphics.simpleIcon;strokeColor=#CCCCCC;labelPosition=center;fontStyle=0;fontFamily=Noto Sans;fontSource=https%3A%2F%2Ffonts.googleapis.com%2Fcss%3Ffamily%3DNoto%2BSans;sketch=1;curveFitting=1;jiggle=2;" vertex="1" parent="qlO3pkbu8yI7qJ5NsXcW-1">
          <mxGeometry x="30" y="60" width="190" height="100" as="geometry" />
        </mxCell>
        <mxCell id="qlO3pkbu8yI7qJ5NsXcW-6" value="&lt;p style=&quot;font-size: 36px;&quot;&gt;Footer&lt;/p&gt;" style="verticalLabelPosition=middle;shadow=0;dashed=0;align=center;html=1;verticalAlign=middle;strokeWidth=1;shape=mxgraph.mockup.graphics.simpleIcon;strokeColor=#999999;labelPosition=center;fontStyle=0;fontFamily=Noto Sans;fontSource=https%3A%2F%2Ffonts.googleapis.com%2Fcss%3Ffamily%3DNoto%2BSans;sketch=1;curveFitting=1;jiggle=2;" vertex="1" parent="qlO3pkbu8yI7qJ5NsXcW-1">
          <mxGeometry x="30" y="1500" width="930" height="130" as="geometry" />
        </mxCell>
        <mxCell id="qlO3pkbu8yI7qJ5NsXcW-7" value="&lt;p style=&quot;font-size: 36px;&quot;&gt;Hero&lt;/p&gt;" style="verticalLabelPosition=middle;shadow=0;dashed=0;align=center;html=1;verticalAlign=middle;strokeWidth=1;shape=mxgraph.mockup.graphics.simpleIcon;strokeColor=#CCCCCC;labelPosition=center;fontStyle=0;fontFamily=Noto Sans;fontSource=https%3A%2F%2Ffonts.googleapis.com%2Fcss%3Ffamily%3DNoto%2BSans;sketch=1;curveFitting=1;jiggle=2;" vertex="1" parent="qlO3pkbu8yI7qJ5NsXcW-1">
          <mxGeometry x="10" y="200" width="980" height="150" as="geometry" />
        </mxCell>
        <mxCell id="qlO3pkbu8yI7qJ5NsXcW-8" value="" style="rounded=0;whiteSpace=wrap;html=1;strokeColor=#CCCCCC;" vertex="1" parent="qlO3pkbu8yI7qJ5NsXcW-1">
          <mxGeometry x="20" y="400" width="960" height="960" as="geometry" />
        </mxCell>
        <mxCell id="80Sck0OH7fy2LfMRUgEM-1" style="edgeStyle=orthogonalEdgeStyle;rounded=0;orthogonalLoop=1;jettySize=auto;html=1;strokeWidth=6;" edge="1" parent="qlO3pkbu8yI7qJ5NsXcW-1" source="80Sck0OH7fy2LfMRUgEM-0">
          <mxGeometry relative="1" as="geometry">
            <mxPoint x="1170" y="110" as="targetPoint" />
          </mxGeometry>
        </mxCell>
        <UserObject label="Contact" placeholders="1" name="Variable" id="80Sck0OH7fy2LfMRUgEM-0">
          <mxCell style="text;html=1;strokeColor=none;fillColor=none;align=center;verticalAlign=middle;whiteSpace=wrap;overflow=hidden;fontSize=29;fontFamily=Noto Sans;fontSource=https%3A%2F%2Ffonts.googleapis.com%2Fcss%3Ffamily%3DNoto%2BSans;" vertex="1" parent="qlO3pkbu8yI7qJ5NsXcW-1">
            <mxGeometry x="690" y="85" width="200" height="50" as="geometry" />
          </mxCell>
        </UserObject>
        <mxCell id="80Sck0OH7fy2LfMRUgEM-2" value="mailto: jeff@dollarscholars.org" style="text;html=1;strokeColor=none;fillColor=none;align=center;verticalAlign=middle;whiteSpace=wrap;rounded=0;" vertex="1" parent="qlO3pkbu8yI7qJ5NsXcW-1">
          <mxGeometry x="1190" y="95" width="200" height="30" as="geometry" />
        </mxCell>
      </root>
    </mxGraphModel>
  </diagram>
</mxfile>
